<svg xmlns="http://www.w3.org/2000/svg" xmlns:xlink="http://www.w3.org/1999/xlink" width="500" zoomAndPan="magnify" viewBox="0 0 375 374.999991" height="500" preserveAspectRatio="xMidYMid meet" version="1.0"><defs><clipPath id="61f049016d"><path d="M 189.050781 63.132812 L 268.320312 63.132812 L 268.320312 142.402344 L 189.050781 142.402344 Z M 189.050781 63.132812 " clip-rule="nonzero"/></clipPath><clipPath id="cf12a7c098"><path d="M 228.6875 63.132812 C 206.796875 63.132812 189.050781 80.878906 189.050781 102.765625 C 189.050781 124.65625 206.796875 142.402344 228.6875 142.402344 C 250.574219 142.402344 268.320312 124.65625 268.320312 102.765625 C 268.320312 80.878906 250.574219 63.132812 228.6875 63.132812 Z M 228.6875 63.132812 " clip-rule="nonzero"/></clipPath></defs><path stroke-linecap="round" transform="matrix(1.056914, 0, 0, 1.056914, 0.0000045, 344.970681)" fill="none" stroke-linejoin="miter" d="M 5.000549 4.998727 L 349.805872 4.998727 " stroke="#2b2b2b" stroke-width="10" stroke-opacity="1" stroke-miterlimit="4"/><path stroke-linecap="round" transform="matrix(0, -1.056914, 1.056914, 0, 42.993266, 352.213453)" fill="none" stroke-linejoin="miter" d="M 4.999237 4.999533 L 304.840237 4.999533 " stroke="#2b2b2b" stroke-width="10" stroke-opacity="1" stroke-miterlimit="4"/><path stroke-linecap="round" transform="matrix(1.056914, 0, 0, 1.056914, 0.0000045, 19.460272)" fill="none" stroke-linejoin="miter" d="M 5.000549 5.001183 L 279.306574 5.001183 " stroke="#2b2b2b" stroke-width="10" stroke-opacity="1" stroke-miterlimit="4"/><path stroke-linecap="round" transform="matrix(0.698633, -0.793083, 0.793083, 0.698633, 43.232925, 85.223315)" fill="none" stroke-linejoin="miter" d="M 5.000696 4.999266 L 75.666923 5.000983 " stroke="#2b2b2b" stroke-width="10" stroke-opacity="1" stroke-miterlimit="4"/><path stroke-linecap="round" transform="matrix(0, -1.056914, 1.056914, 0, 223.400409, 69.846089)" fill="none" stroke-linejoin="miter" d="M 4.99907 4.998688 L 37.674525 4.998688 " stroke="#2b2b2b" stroke-width="10" stroke-opacity="1" stroke-miterlimit="4"/><path stroke-linecap="round" transform="matrix(-0.00000154214, -1.056914, 1.056914, -0.00000154214, 223.392983, 259.30932)" fill="none" stroke-linejoin="miter" d="M 5.001233 4.998329 L 113.967462 4.998488 " stroke="#2b2b2b" stroke-width="10" stroke-opacity="1" stroke-miterlimit="4"/><path stroke-linecap="round" transform="matrix(0.838529, -0.643379, 0.643379, 0.838529, 184.282257, 192.252643)" fill="none" stroke-linejoin="miter" d="M 5.000761 4.998399 L 47.163153 5.000061 " stroke="#2b2b2b" stroke-width="10" stroke-opacity="1" stroke-miterlimit="4"/><path stroke-linecap="round" transform="matrix(-0.836248, -0.646341, 0.646341, -0.836248, 265.086023, 200.628268)" fill="none" stroke-linejoin="miter" d="M 5.000103 5.000492 L 46.344574 5.000525 " stroke="#2b2b2b" stroke-width="10" stroke-opacity="1" stroke-miterlimit="4"/><g clip-path="url(#61f049016d)"><g clip-path="url(#cf12a7c098)"><path stroke-linecap="butt" transform="matrix(1.056914, 0, 0, 1.056914, 189.051292, 63.133289)" fill="none" stroke-linejoin="miter" d="M 37.501813 -0.00045127 C 16.78999 -0.00045127 -0.000483327 16.790022 -0.000483327 37.501845 C -0.000483327 58.209972 16.78999 75.000445 37.501813 75.000445 C 58.20994 75.000445 75.000413 58.209972 75.000413 37.501845 C 75.000413 16.790022 58.20994 -0.00045127 37.501813 -0.00045127 Z M 37.501813 -0.00045127 " stroke="#2b2b2b" stroke-width="19.86916" stroke-opacity="1" stroke-miterlimit="4"/></g></g><path stroke-linecap="round" transform="matrix(0.541136, -0.907877, 0.907877, 0.541136, 186.191623, 313.576151)" fill="none" stroke-linejoin="miter" d="M 5.000606 5.000537 L 69.368136 5.001041 " stroke="#2b2b2b" stroke-width="10" stroke-opacity="1" stroke-miterlimit="4"/></svg>