<svg xmlns="http://www.w3.org/2000/svg" xmlns:xlink="http://www.w3.org/1999/xlink" width="500" zoomAndPan="magnify" viewBox="0 0 375 374.999991" height="500" preserveAspectRatio="xMidYMid meet" version="1.0"><defs><clipPath id="b2106ceb41"><path d="M 189.050781 63.132812 L 268.320312 63.132812 L 268.320312 142.402344 L 189.050781 142.402344 Z M 189.050781 63.132812 " clip-rule="nonzero"/></clipPath><clipPath id="7f7f477860"><path d="M 228.6875 63.132812 C 206.796875 63.132812 189.050781 80.878906 189.050781 102.769531 C 189.050781 124.65625 206.796875 142.402344 228.6875 142.402344 C 250.574219 142.402344 268.320312 124.65625 268.320312 102.769531 C 268.320312 80.878906 250.574219 63.132812 228.6875 63.132812 Z M 228.6875 63.132812 " clip-rule="nonzero"/></clipPath></defs><path stroke-linecap="round" transform="matrix(1.056914, 0, 0, 1.056914, 0.0000045, 344.970563)" fill="none" stroke-linejoin="miter" d="M 5.000549 4.998838 L 349.805872 4.998838 " stroke="#2b2b2b" stroke-width="10" stroke-opacity="1" stroke-miterlimit="4"/><path stroke-linecap="round" transform="matrix(0, -1.056914, 1.056914, 0, 42.993266, 352.213453)" fill="none" stroke-linejoin="miter" d="M 4.999237 4.999533 L 304.840237 4.999533 " stroke="#2b2b2b" stroke-width="10" stroke-opacity="1" stroke-miterlimit="4"/><path stroke-linecap="round" transform="matrix(1.056914, 0, 0, 1.056914, 0.0000045, 19.460272)" fill="none" stroke-linejoin="miter" d="M 5.000549 5.001183 L 279.306574 5.001183 " stroke="#2b2b2b" stroke-width="10" stroke-opacity="1" stroke-miterlimit="4"/><path stroke-linecap="round" transform="matrix(0.698633, -0.793083, 0.793083, 0.698633, 43.232925, 85.223255)" fill="none" stroke-linejoin="miter" d="M 5.000653 4.999304 L 75.666881 5.00102 " stroke="#2b2b2b" stroke-width="10" stroke-opacity="1" stroke-miterlimit="4"/><path stroke-linecap="round" transform="matrix(0, -1.056914, 1.056914, 0, 223.400409, 69.846031)" fill="none" stroke-linejoin="miter" d="M 4.999016 4.998688 L 37.67447 4.998688 " stroke="#2b2b2b" stroke-width="10" stroke-opacity="1" stroke-miterlimit="4"/><path stroke-linecap="round" transform="matrix(-0.00000154214, -1.056914, 1.056914, -0.00000154214, 223.392983, 259.30932)" fill="none" stroke-linejoin="miter" d="M 5.001233 4.998329 L 113.967462 4.998488 " stroke="#2b2b2b" stroke-width="10" stroke-opacity="1" stroke-miterlimit="4"/><path stroke-linecap="round" transform="matrix(0.838529, -0.643379, 0.643379, 0.838529, 184.282257, 192.252585)" fill="none" stroke-linejoin="miter" d="M 5.000728 4.998442 L 47.16312 5.000104 " stroke="#2b2b2b" stroke-width="10" stroke-opacity="1" stroke-miterlimit="4"/><g clip-path="url(#b2106ceb41)"><g clip-path="url(#7f7f477860)"><path stroke-linecap="butt" transform="matrix(1.056914, 0, 0, 1.056914, 189.051292, 63.13345)" fill="none" stroke-linejoin="miter" d="M 37.501813 -0.000603411 C 16.78999 -0.000603411 -0.000483327 16.78987 -0.000483327 37.501693 C -0.000483327 58.20982 16.78999 75.000293 37.501813 75.000293 C 58.20994 75.000293 75.000413 58.20982 75.000413 37.501693 C 75.000413 16.78987 58.20994 -0.000603411 37.501813 -0.000603411 Z M 37.501813 -0.000603411 " stroke="#2b2b2b" stroke-width="19.86916" stroke-opacity="1" stroke-miterlimit="4"/></g></g></svg>