<svg xmlns="http://www.w3.org/2000/svg" xmlns:xlink="http://www.w3.org/1999/xlink" width="500" zoomAndPan="magnify" viewBox="0 0 375 374.999991" height="500" preserveAspectRatio="xMidYMid meet" version="1.0"><defs><clipPath id="70c9527377"><path d="M 189.050781 63.132812 L 268.320312 63.132812 L 268.320312 142.402344 L 189.050781 142.402344 Z M 189.050781 63.132812 " clip-rule="nonzero"/></clipPath><clipPath id="c352f171cb"><path d="M 228.6875 63.132812 C 206.796875 63.132812 189.050781 80.878906 189.050781 102.769531 C 189.050781 124.65625 206.796875 142.402344 228.6875 142.402344 C 250.574219 142.402344 268.320312 124.65625 268.320312 102.769531 C 268.320312 80.878906 250.574219 63.132812 228.6875 63.132812 Z M 228.6875 63.132812 " clip-rule="nonzero"/></clipPath></defs><path stroke-linecap="round" transform="matrix(1.056914, 0, 0, 1.056914, 0.0000045, 344.970563)" fill="none" stroke-linejoin="miter" d="M 5.000549 4.998838 L 349.805872 4.998838 " stroke="#2b2b2b" stroke-width="10" stroke-opacity="1" stroke-miterlimit="4"/><path stroke-linecap="round" transform="matrix(0, -1.056914, 1.056914, 0, 42.993266, 352.213453)" fill="none" stroke-linejoin="miter" d="M 4.999237 4.999533 L 304.840237 4.999533 " stroke="#2b2b2b" stroke-width="10" stroke-opacity="1" stroke-miterlimit="4"/><path stroke-linecap="round" transform="matrix(1.056914, 0, 0, 1.056914, 0.0000045, 19.460272)" fill="none" stroke-linejoin="miter" d="M 5.000549 5.001183 L 279.306574 5.001183 " stroke="#2b2b2b" stroke-width="10" stroke-opacity="1" stroke-miterlimit="4"/><path stroke-linecap="round" transform="matrix(0.698633, -0.793083, 0.793083, 0.698633, 43.232925, 85.223198)" fill="none" stroke-linejoin="miter" d="M 5.000612 4.99934 L 75.66684 5.001056 " stroke="#2b2b2b" stroke-width="10" stroke-opacity="1" stroke-miterlimit="4"/><path stroke-linecap="round" transform="matrix(0, -1.056914, 1.056914, 0, 223.400409, 69.846089)" fill="none" stroke-linejoin="miter" d="M 4.99907 4.998688 L 37.674525 4.998688 " stroke="#2b2b2b" stroke-width="10" stroke-opacity="1" stroke-miterlimit="4"/><path stroke-linecap="round" transform="matrix(-0.00000154214, -1.056914, 1.056914, -0.00000154214, 223.392983, 259.30932)" fill="none" stroke-linejoin="miter" d="M 5.001233 4.998329 L 113.967462 4.998488 " stroke="#2b2b2b" stroke-width="10" stroke-opacity="1" stroke-miterlimit="4"/><path stroke-linecap="round" transform="matrix(0.838529, -0.643379, 0.643379, 0.838529, 184.282257, 192.252527)" fill="none" stroke-linejoin="miter" d="M 5.000695 4.998486 L 47.163086 5.000147 " stroke="#2b2b2b" stroke-width="10" stroke-opacity="1" stroke-miterlimit="4"/><path stroke-linecap="round" transform="matrix(-0.836248, -0.646341, 0.646341, -0.836248, 265.086023, 200.62815)" fill="none" stroke-linejoin="miter" d="M 5.000035 5.000404 L 46.344506 5.000437 " stroke="#2b2b2b" stroke-width="10" stroke-opacity="1" stroke-miterlimit="4"/><g clip-path="url(#70c9527377)"><g clip-path="url(#c352f171cb)"><path stroke-linecap="butt" transform="matrix(1.056914, 0, 0, 1.056914, 189.051292, 63.133421)" fill="none" stroke-linejoin="miter" d="M 37.501813 -0.000576162 C 16.78999 -0.000576162 -0.000483327 16.789897 -0.000483327 37.50172 C -0.000483327 58.209847 16.78999 75.00032 37.501813 75.00032 C 58.20994 75.00032 75.000413 58.209847 75.000413 37.50172 C 75.000413 16.789897 58.20994 -0.000576162 37.501813 -0.000576162 Z M 37.501813 -0.000576162 " stroke="#2b2b2b" stroke-width="19.86916" stroke-opacity="1" stroke-miterlimit="4"/></g></g></svg>