<svg xmlns="http://www.w3.org/2000/svg" xmlns:xlink="http://www.w3.org/1999/xlink" width="500" zoomAndPan="magnify" viewBox="0 0 375 374.999991" height="500" preserveAspectRatio="xMidYMid meet" version="1.0"><path fill="#2b2b2b" d="M 318.03125 303.457031 L 91.648438 303.457031 L 91.648438 123.925781 L 127.519531 83.574219 L 210.214844 83.574219 L 210.214844 102.460938 C 209.375 102.601562 208.542969 102.777344 207.71875 102.988281 C 206.894531 103.203125 206.082031 103.449219 205.277344 103.734375 C 204.476562 104.019531 203.6875 104.335938 202.914062 104.691406 C 202.140625 105.046875 201.382812 105.433594 200.644531 105.851562 C 199.902344 106.273438 199.183594 106.722656 198.484375 107.207031 C 197.78125 107.691406 197.105469 108.203125 196.449219 108.746094 C 195.792969 109.289062 195.164062 109.859375 194.558594 110.460938 C 193.953125 111.058594 193.378906 111.683594 192.828125 112.332031 C 192.277344 112.980469 191.757812 113.652344 191.265625 114.347656 C 190.773438 115.042969 190.3125 115.757812 189.886719 116.492188 C 189.457031 117.226562 189.0625 117.980469 188.699219 118.75 C 188.339844 119.523438 188.011719 120.304688 187.71875 121.105469 C 187.425781 121.902344 187.167969 122.714844 186.945312 123.535156 C 186.726562 124.359375 186.539062 125.1875 186.390625 126.023438 C 186.242188 126.863281 186.128906 127.707031 186.054688 128.554688 C 185.980469 129.402344 185.945312 130.25 185.945312 131.101562 C 185.945312 131.953125 185.980469 132.800781 186.054688 133.648438 C 186.128906 134.496094 186.242188 135.339844 186.390625 136.179688 C 186.539062 137.015625 186.726562 137.847656 186.945312 138.667969 C 187.167969 139.488281 187.425781 140.300781 187.71875 141.097656 C 188.011719 141.898438 188.339844 142.683594 188.699219 143.453125 C 189.0625 144.222656 189.457031 144.976562 189.886719 145.710938 C 190.3125 146.445312 190.773438 147.160156 191.265625 147.855469 C 191.757812 148.550781 192.277344 149.222656 192.828125 149.871094 C 193.378906 150.523438 193.953125 151.144531 194.558594 151.742188 C 195.164062 152.34375 195.792969 152.914062 196.449219 153.457031 C 197.105469 154 197.78125 154.511719 198.484375 154.996094 C 199.183594 155.480469 199.902344 155.929688 200.644531 156.351562 C 201.382812 156.773438 202.140625 157.160156 202.914062 157.511719 C 203.6875 157.867188 204.476562 158.183594 205.277344 158.46875 C 206.082031 158.753906 206.894531 159 207.71875 159.214844 C 208.542969 159.425781 209.375 159.601562 210.214844 159.742188 L 210.214844 175.308594 L 177.714844 191.082031 C 177.445312 191.214844 177.191406 191.367188 176.949219 191.550781 C 176.710938 191.730469 176.488281 191.933594 176.289062 192.160156 C 176.089844 192.382812 175.914062 192.625 175.761719 192.882812 C 175.609375 193.144531 175.484375 193.414062 175.386719 193.699219 C 175.285156 193.984375 175.214844 194.273438 175.175781 194.570312 C 175.132812 194.871094 175.121094 195.167969 175.140625 195.46875 C 175.15625 195.769531 175.203125 196.066406 175.28125 196.355469 C 175.355469 196.644531 175.460938 196.925781 175.589844 197.199219 C 175.722656 197.46875 175.878906 197.722656 176.058594 197.964844 C 176.242188 198.203125 176.445312 198.421875 176.667969 198.621094 C 176.894531 198.820312 177.136719 198.996094 177.394531 199.148438 C 177.65625 199.300781 177.925781 199.425781 178.210938 199.523438 C 178.496094 199.621094 178.785156 199.691406 179.082031 199.734375 C 179.382812 199.773438 179.679688 199.785156 179.980469 199.765625 C 180.28125 199.75 180.578125 199.703125 180.867188 199.625 C 181.15625 199.550781 181.4375 199.445312 181.707031 199.3125 L 210.214844 185.480469 L 210.214844 236.496094 L 176.464844 270.535156 C 176.253906 270.75 176.0625 270.980469 175.898438 271.230469 C 175.734375 271.480469 175.59375 271.746094 175.480469 272.023438 C 175.367188 272.300781 175.28125 272.589844 175.222656 272.882812 C 175.164062 273.179688 175.136719 273.476562 175.136719 273.777344 C 175.140625 274.078125 175.171875 274.375 175.230469 274.667969 C 175.289062 274.960938 175.378906 275.246094 175.496094 275.523438 C 175.609375 275.800781 175.753906 276.066406 175.921875 276.3125 C 176.089844 276.5625 176.277344 276.792969 176.492188 277.003906 C 176.707031 277.214844 176.9375 277.402344 177.1875 277.570312 C 177.4375 277.734375 177.703125 277.875 177.980469 277.988281 C 178.257812 278.101562 178.542969 278.1875 178.839844 278.246094 C 179.132812 278.304688 179.429688 278.332031 179.730469 278.328125 C 180.03125 278.328125 180.328125 278.296875 180.625 278.238281 C 180.917969 278.179688 181.203125 278.089844 181.480469 277.972656 C 181.757812 277.859375 182.019531 277.714844 182.269531 277.546875 C 182.519531 277.378906 182.75 277.191406 182.960938 276.976562 L 214.785156 244.871094 L 246.613281 276.972656 C 246.824219 277.183594 247.054688 277.375 247.304688 277.542969 C 247.554688 277.710938 247.816406 277.851562 248.09375 277.96875 C 248.371094 278.085938 248.65625 278.171875 248.949219 278.230469 C 249.246094 278.292969 249.542969 278.320312 249.839844 278.324219 C 250.140625 278.324219 250.4375 278.296875 250.734375 278.238281 C 251.027344 278.179688 251.3125 278.09375 251.59375 277.980469 C 251.871094 277.867188 252.132812 277.726562 252.382812 277.5625 C 252.632812 277.398438 252.867188 277.207031 253.078125 276.996094 C 253.292969 276.785156 253.480469 276.554688 253.648438 276.308594 C 253.816406 276.058594 253.960938 275.796875 254.074219 275.519531 C 254.191406 275.242188 254.28125 274.957031 254.339844 274.664062 C 254.398438 274.367188 254.429688 274.070312 254.433594 273.769531 C 254.433594 273.472656 254.40625 273.175781 254.347656 272.878906 C 254.292969 272.585938 254.207031 272.296875 254.09375 272.019531 C 253.980469 271.742188 253.839844 271.480469 253.675781 271.226562 C 253.507812 270.976562 253.320312 270.746094 253.109375 270.53125 L 219.359375 236.492188 L 219.359375 185.476562 L 247.867188 199.3125 C 248.136719 199.445312 248.417969 199.550781 248.707031 199.625 C 249 199.699219 249.292969 199.75 249.59375 199.765625 C 249.894531 199.785156 250.191406 199.773438 250.488281 199.730469 C 250.789062 199.691406 251.078125 199.621094 251.363281 199.523438 C 251.644531 199.425781 251.917969 199.296875 252.175781 199.148438 C 252.4375 198.996094 252.679688 198.820312 252.902344 198.621094 C 253.128906 198.421875 253.332031 198.199219 253.511719 197.960938 C 253.695312 197.722656 253.851562 197.464844 253.980469 197.195312 C 254.113281 196.925781 254.214844 196.644531 254.292969 196.355469 C 254.367188 196.0625 254.414062 195.769531 254.433594 195.46875 C 254.449219 195.167969 254.4375 194.871094 254.398438 194.570312 C 254.355469 194.273438 254.285156 193.984375 254.1875 193.699219 C 254.089844 193.414062 253.964844 193.144531 253.8125 192.886719 C 253.660156 192.625 253.484375 192.382812 253.285156 192.160156 C 253.082031 191.933594 252.863281 191.730469 252.625 191.550781 C 252.382812 191.371094 252.128906 191.214844 251.859375 191.082031 L 219.359375 175.308594 L 219.359375 159.8125 C 220.210938 159.683594 221.050781 159.515625 221.886719 159.3125 C 222.722656 159.109375 223.546875 158.867188 224.359375 158.589844 C 225.175781 158.3125 225.972656 158 226.761719 157.652344 C 227.546875 157.304688 228.316406 156.921875 229.066406 156.503906 C 229.820312 156.089844 230.550781 155.640625 231.265625 155.160156 C 231.976562 154.675781 232.664062 154.164062 233.332031 153.621094 C 234 153.078125 234.640625 152.507812 235.257812 151.910156 C 235.871094 151.308594 236.460938 150.683594 237.019531 150.03125 C 237.582031 149.378906 238.113281 148.703125 238.613281 148.003906 C 239.113281 147.304688 239.582031 146.585938 240.019531 145.84375 C 240.453125 145.105469 240.855469 144.347656 241.226562 143.570312 C 241.59375 142.792969 241.929688 142 242.226562 141.195312 C 242.527344 140.390625 242.789062 139.570312 243.015625 138.742188 C 243.242188 137.914062 243.429688 137.074219 243.582031 136.230469 C 243.734375 135.382812 243.847656 134.53125 243.925781 133.675781 C 244 132.820312 244.039062 131.960938 244.039062 131.101562 C 244.039062 130.242188 244 129.382812 243.925781 128.527344 C 243.847656 127.671875 243.734375 126.820312 243.582031 125.972656 C 243.429688 125.128906 243.242188 124.289062 243.015625 123.460938 C 242.789062 122.632812 242.527344 121.8125 242.226562 121.007812 C 241.929688 120.199219 241.59375 119.410156 241.226562 118.632812 C 240.855469 117.855469 240.453125 117.097656 240.019531 116.359375 C 239.582031 115.617188 239.113281 114.898438 238.613281 114.199219 C 238.113281 113.5 237.582031 112.824219 237.019531 112.171875 C 236.460938 111.519531 235.871094 110.894531 235.257812 110.292969 C 234.640625 109.695312 234 109.125 233.332031 108.582031 C 232.664062 108.039062 231.976562 107.527344 231.265625 107.042969 C 230.550781 106.5625 229.820312 106.113281 229.066406 105.695312 C 228.316406 105.28125 227.546875 104.898438 226.761719 104.550781 C 225.972656 104.203125 225.175781 103.890625 224.359375 103.613281 C 223.546875 103.335938 222.722656 103.09375 221.886719 102.890625 C 221.050781 102.6875 220.210938 102.519531 219.359375 102.390625 L 219.359375 83.574219 L 266.457031 83.574219 C 266.757812 83.574219 267.054688 83.542969 267.347656 83.484375 C 267.640625 83.425781 267.929688 83.339844 268.207031 83.222656 C 268.484375 83.109375 268.746094 82.96875 268.996094 82.800781 C 269.246094 82.636719 269.476562 82.445312 269.691406 82.234375 C 269.902344 82.019531 270.089844 81.789062 270.257812 81.539062 C 270.425781 81.289062 270.566406 81.027344 270.679688 80.75 C 270.796875 80.472656 270.882812 80.1875 270.941406 79.890625 C 271 79.597656 271.027344 79.300781 271.027344 79 C 271.027344 78.699219 271 78.402344 270.941406 78.105469 C 270.882812 77.8125 270.796875 77.527344 270.679688 77.25 C 270.566406 76.972656 270.425781 76.707031 270.257812 76.457031 C 270.089844 76.207031 269.902344 75.976562 269.691406 75.765625 C 269.476562 75.554688 269.246094 75.363281 268.996094 75.195312 C 268.746094 75.03125 268.484375 74.890625 268.207031 74.773438 C 267.929688 74.660156 267.640625 74.574219 267.347656 74.515625 C 267.054688 74.457031 266.757812 74.425781 266.457031 74.425781 L 60.648438 74.425781 C 60.347656 74.425781 60.050781 74.457031 59.757812 74.515625 C 59.460938 74.574219 59.175781 74.660156 58.898438 74.773438 C 58.621094 74.890625 58.359375 75.03125 58.109375 75.195312 C 57.859375 75.363281 57.628906 75.554688 57.414062 75.765625 C 57.203125 75.976562 57.011719 76.207031 56.847656 76.457031 C 56.679688 76.707031 56.539062 76.972656 56.421875 77.25 C 56.308594 77.527344 56.222656 77.8125 56.164062 78.105469 C 56.105469 78.402344 56.074219 78.699219 56.074219 79 C 56.074219 79.300781 56.105469 79.597656 56.164062 79.890625 C 56.222656 80.1875 56.308594 80.472656 56.421875 80.75 C 56.539062 81.027344 56.679688 81.289062 56.847656 81.539062 C 57.011719 81.789062 57.203125 82.019531 57.414062 82.234375 C 57.628906 82.445312 57.859375 82.636719 58.109375 82.800781 C 58.359375 82.96875 58.621094 83.109375 58.898438 83.222656 C 59.175781 83.339844 59.460938 83.425781 59.757812 83.484375 C 60.050781 83.542969 60.347656 83.574219 60.648438 83.574219 L 82.503906 83.574219 L 82.503906 303.457031 L 56.96875 303.457031 C 56.667969 303.457031 56.371094 303.488281 56.078125 303.546875 C 55.78125 303.605469 55.496094 303.691406 55.21875 303.804688 C 54.941406 303.921875 54.675781 304.0625 54.429688 304.230469 C 54.179688 304.394531 53.949219 304.585938 53.734375 304.796875 C 53.523438 305.011719 53.332031 305.242188 53.167969 305.492188 C 53 305.738281 52.859375 306.003906 52.742188 306.28125 C 52.628906 306.558594 52.542969 306.84375 52.484375 307.140625 C 52.425781 307.433594 52.394531 307.730469 52.394531 308.03125 C 52.394531 308.332031 52.425781 308.628906 52.484375 308.921875 C 52.542969 309.21875 52.628906 309.503906 52.742188 309.78125 C 52.859375 310.058594 53 310.320312 53.167969 310.570312 C 53.332031 310.820312 53.523438 311.050781 53.734375 311.265625 C 53.949219 311.476562 54.179688 311.667969 54.429688 311.832031 C 54.675781 312 54.941406 312.140625 55.21875 312.257812 C 55.496094 312.371094 55.78125 312.457031 56.078125 312.515625 C 56.371094 312.574219 56.667969 312.605469 56.96875 312.605469 L 318.03125 312.605469 C 318.332031 312.605469 318.628906 312.574219 318.925781 312.515625 C 319.21875 312.457031 319.503906 312.371094 319.78125 312.257812 C 320.058594 312.140625 320.324219 312 320.574219 311.832031 C 320.824219 311.667969 321.054688 311.476562 321.265625 311.265625 C 321.476562 311.050781 321.667969 310.820312 321.835938 310.570312 C 322 310.320312 322.140625 310.058594 322.257812 309.78125 C 322.371094 309.503906 322.457031 309.21875 322.515625 308.921875 C 322.574219 308.628906 322.605469 308.332031 322.605469 308.03125 C 322.605469 307.730469 322.574219 307.433594 322.515625 307.140625 C 322.457031 306.84375 322.371094 306.558594 322.257812 306.28125 C 322.140625 306.003906 322 305.738281 321.835938 305.492188 C 321.667969 305.242188 321.476562 305.011719 321.265625 304.796875 C 321.054688 304.585938 320.824219 304.394531 320.574219 304.230469 C 320.324219 304.0625 320.058594 303.921875 319.78125 303.804688 C 319.503906 303.691406 319.21875 303.605469 318.925781 303.546875 C 318.628906 303.488281 318.332031 303.457031 318.03125 303.457031 Z M 234.882812 131.101562 C 234.882812 131.753906 234.847656 132.402344 234.785156 133.050781 C 234.722656 133.699219 234.625 134.34375 234.5 134.980469 C 234.371094 135.621094 234.214844 136.253906 234.023438 136.875 C 233.835938 137.5 233.617188 138.113281 233.367188 138.714844 C 233.117188 139.316406 232.839844 139.90625 232.53125 140.480469 C 232.226562 141.054688 231.890625 141.613281 231.527344 142.152344 C 231.167969 142.695312 230.777344 143.21875 230.367188 143.722656 C 229.953125 144.226562 229.515625 144.707031 229.054688 145.167969 C 228.59375 145.628906 228.113281 146.066406 227.609375 146.480469 C 227.105469 146.890625 226.582031 147.28125 226.039062 147.640625 C 225.5 148.003906 224.941406 148.339844 224.367188 148.644531 C 223.789062 148.953125 223.203125 149.230469 222.601562 149.480469 C 222 149.730469 221.386719 149.949219 220.761719 150.136719 C 220.140625 150.328125 219.507812 150.484375 218.867188 150.613281 C 218.230469 150.738281 217.585938 150.835938 216.9375 150.898438 C 216.289062 150.960938 215.640625 150.996094 214.988281 150.996094 C 214.335938 150.996094 213.6875 150.960938 213.039062 150.898438 C 212.390625 150.835938 211.746094 150.738281 211.105469 150.613281 C 210.46875 150.484375 209.835938 150.328125 209.214844 150.136719 C 208.589844 149.949219 207.976562 149.730469 207.375 149.480469 C 206.773438 149.230469 206.183594 148.953125 205.609375 148.644531 C 205.035156 148.339844 204.476562 148.003906 203.9375 147.640625 C 203.394531 147.28125 202.871094 146.890625 202.367188 146.480469 C 201.863281 146.066406 201.382812 145.628906 200.921875 145.167969 C 200.460938 144.707031 200.023438 144.226562 199.609375 143.722656 C 199.195312 143.21875 198.808594 142.695312 198.445312 142.152344 C 198.085938 141.613281 197.75 141.054688 197.445312 140.480469 C 197.136719 139.90625 196.859375 139.316406 196.609375 138.714844 C 196.359375 138.113281 196.140625 137.5 195.949219 136.875 C 195.761719 136.253906 195.605469 135.621094 195.476562 134.980469 C 195.351562 134.34375 195.253906 133.699219 195.191406 133.050781 C 195.125 132.402344 195.09375 131.753906 195.09375 131.101562 C 195.09375 130.449219 195.125 129.800781 195.191406 129.152344 C 195.253906 128.503906 195.351562 127.859375 195.476562 127.21875 C 195.605469 126.582031 195.761719 125.949219 195.949219 125.328125 C 196.140625 124.703125 196.359375 124.089844 196.609375 123.488281 C 196.859375 122.886719 197.136719 122.296875 197.445312 121.722656 C 197.75 121.148438 198.085938 120.589844 198.445312 120.050781 C 198.808594 119.507812 199.195312 118.984375 199.609375 118.480469 C 200.023438 117.976562 200.460938 117.496094 200.921875 117.035156 C 201.382812 116.574219 201.863281 116.136719 202.367188 115.722656 C 202.871094 115.308594 203.394531 114.921875 203.9375 114.5625 C 204.476562 114.199219 205.035156 113.863281 205.609375 113.558594 C 206.183594 113.25 206.773438 112.972656 207.375 112.722656 C 207.976562 112.472656 208.589844 112.253906 209.214844 112.066406 C 209.835938 111.875 210.46875 111.71875 211.105469 111.589844 C 211.746094 111.464844 212.390625 111.367188 213.039062 111.304688 C 213.6875 111.238281 214.335938 111.207031 214.988281 111.207031 C 215.640625 111.207031 216.289062 111.242188 216.9375 111.304688 C 217.585938 111.371094 218.226562 111.464844 218.867188 111.59375 C 219.503906 111.722656 220.136719 111.878906 220.761719 112.070312 C 221.382812 112.257812 221.996094 112.480469 222.597656 112.730469 C 223.199219 112.976562 223.785156 113.257812 224.359375 113.5625 C 224.933594 113.871094 225.492188 114.207031 226.035156 114.566406 C 226.574219 114.929688 227.097656 115.316406 227.601562 115.730469 C 228.105469 116.144531 228.585938 116.582031 229.046875 117.042969 C 229.507812 117.503906 229.945312 117.984375 230.359375 118.488281 C 230.773438 118.992188 231.160156 119.511719 231.519531 120.054688 C 231.882812 120.597656 232.21875 121.152344 232.523438 121.726562 C 232.832031 122.300781 233.109375 122.890625 233.359375 123.492188 C 233.609375 124.09375 233.828125 124.707031 234.019531 125.328125 C 234.207031 125.953125 234.367188 126.582031 234.496094 127.222656 C 234.621094 127.859375 234.71875 128.503906 234.78125 129.152344 C 234.847656 129.800781 234.878906 130.449219 234.882812 131.101562 Z M 91.648438 83.574219 L 115.285156 83.574219 L 91.648438 110.160156 Z M 91.648438 83.574219 " fill-opacity="1" fill-rule="nonzero"/><path fill="#2b2b2b" d="M 355.183594 0 L 19.816406 0 C 19.167969 0 18.519531 0.0351562 17.875 0.0976562 C 17.230469 0.160156 16.589844 0.257812 15.953125 0.382812 C 15.316406 0.511719 14.6875 0.667969 14.066406 0.859375 C 13.445312 1.046875 12.835938 1.265625 12.238281 1.515625 C 11.636719 1.761719 11.050781 2.039062 10.480469 2.347656 C 9.90625 2.652344 9.351562 2.984375 8.8125 3.347656 C 8.273438 3.707031 7.753906 4.09375 7.25 4.503906 C 6.75 4.917969 6.269531 5.351562 5.8125 5.8125 C 5.351562 6.269531 4.917969 6.75 4.503906 7.25 C 4.09375 7.753906 3.707031 8.273438 3.347656 8.8125 C 2.984375 9.351562 2.652344 9.90625 2.347656 10.480469 C 2.039062 11.050781 1.761719 11.636719 1.515625 12.238281 C 1.265625 12.835938 1.046875 13.445312 0.859375 14.066406 C 0.667969 14.6875 0.511719 15.316406 0.382812 15.953125 C 0.257812 16.589844 0.160156 17.230469 0.0976562 17.875 C 0.0351562 18.519531 0 19.167969 0 19.816406 L 0 355.183594 C 0 355.832031 0.03125 356.480469 0.0976562 357.125 C 0.160156 357.769531 0.257812 358.410156 0.382812 359.046875 C 0.511719 359.683594 0.667969 360.3125 0.859375 360.933594 C 1.046875 361.554688 1.265625 362.164062 1.515625 362.761719 C 1.761719 363.363281 2.039062 363.949219 2.347656 364.519531 C 2.652344 365.09375 2.984375 365.648438 3.347656 366.1875 C 3.707031 366.726562 4.09375 367.246094 4.503906 367.75 C 4.917969 368.25 5.351562 368.730469 5.8125 369.1875 C 6.269531 369.648438 6.75 370.082031 7.25 370.496094 C 7.753906 370.90625 8.273438 371.292969 8.8125 371.652344 C 9.351562 372.015625 9.90625 372.347656 10.480469 372.652344 C 11.050781 372.960938 11.636719 373.238281 12.238281 373.484375 C 12.835938 373.734375 13.445312 373.953125 14.066406 374.140625 C 14.6875 374.332031 15.316406 374.488281 15.953125 374.617188 C 16.589844 374.742188 17.230469 374.839844 17.875 374.902344 C 18.519531 374.964844 19.167969 375 19.816406 375 L 355.183594 375 C 355.832031 375 356.480469 374.964844 357.125 374.902344 C 357.769531 374.839844 358.410156 374.742188 359.046875 374.617188 C 359.683594 374.488281 360.3125 374.332031 360.933594 374.140625 C 361.554688 373.953125 362.164062 373.734375 362.761719 373.484375 C 363.363281 373.238281 363.949219 372.960938 364.519531 372.652344 C 365.09375 372.347656 365.648438 372.015625 366.1875 371.652344 C 366.726562 371.292969 367.246094 370.90625 367.75 370.496094 C 368.25 370.082031 368.730469 369.648438 369.1875 369.1875 C 369.648438 368.730469 370.082031 368.25 370.496094 367.75 C 370.90625 367.246094 371.292969 366.726562 371.652344 366.1875 C 372.015625 365.648438 372.347656 365.09375 372.652344 364.519531 C 372.960938 363.949219 373.238281 363.363281 373.484375 362.761719 C 373.734375 362.164062 373.953125 361.554688 374.140625 360.933594 C 374.332031 360.3125 374.488281 359.683594 374.617188 359.046875 C 374.742188 358.410156 374.839844 357.769531 374.902344 357.125 C 374.964844 356.480469 375 355.832031 375 355.183594 L 375 19.816406 C 375 19.167969 374.964844 18.519531 374.902344 17.875 C 374.839844 17.230469 374.742188 16.589844 374.617188 15.953125 C 374.488281 15.316406 374.332031 14.6875 374.140625 14.066406 C 373.953125 13.445312 373.734375 12.835938 373.484375 12.238281 C 373.238281 11.636719 372.960938 11.050781 372.652344 10.480469 C 372.347656 9.90625 372.015625 9.351562 371.652344 8.8125 C 371.292969 8.273438 370.90625 7.753906 370.496094 7.25 C 370.082031 6.75 369.648438 6.269531 369.1875 5.8125 C 368.730469 5.351562 368.25 4.917969 367.75 4.503906 C 367.246094 4.09375 366.726562 3.707031 366.1875 3.347656 C 365.648438 2.984375 365.09375 2.652344 364.519531 2.347656 C 363.949219 2.039062 363.363281 1.761719 362.761719 1.515625 C 362.164062 1.265625 361.554688 1.046875 360.933594 0.859375 C 360.3125 0.667969 359.683594 0.511719 359.046875 0.382812 C 358.410156 0.257812 357.769531 0.160156 357.125 0.0976562 C 356.480469 0.0351562 355.832031 0 355.183594 0 Z M 365.855469 355.183594 C 365.851562 355.882812 365.785156 356.578125 365.648438 357.265625 C 365.507812 357.949219 365.308594 358.617188 365.039062 359.265625 C 364.769531 359.910156 364.441406 360.527344 364.050781 361.109375 C 363.664062 361.691406 363.21875 362.230469 362.726562 362.726562 C 362.230469 363.21875 361.691406 363.664062 361.109375 364.050781 C 360.527344 364.441406 359.910156 364.769531 359.265625 365.039062 C 358.617188 365.308594 357.949219 365.507812 357.265625 365.648438 C 356.578125 365.785156 355.882812 365.851562 355.183594 365.855469 L 19.816406 365.855469 C 19.117188 365.851562 18.421875 365.785156 17.734375 365.648438 C 17.050781 365.507812 16.382812 365.308594 15.734375 365.039062 C 15.089844 364.769531 14.472656 364.441406 13.890625 364.050781 C 13.308594 363.664062 12.769531 363.21875 12.273438 362.726562 C 11.78125 362.230469 11.335938 361.691406 10.949219 361.109375 C 10.558594 360.527344 10.230469 359.910156 9.960938 359.265625 C 9.691406 358.617188 9.492188 357.949219 9.351562 357.265625 C 9.214844 356.578125 9.148438 355.882812 9.144531 355.183594 L 9.144531 19.816406 C 9.148438 19.117188 9.214844 18.421875 9.351562 17.734375 C 9.492188 17.050781 9.691406 16.382812 9.960938 15.734375 C 10.230469 15.089844 10.558594 14.472656 10.949219 13.890625 C 11.335938 13.308594 11.78125 12.769531 12.273438 12.273438 C 12.769531 11.78125 13.308594 11.335938 13.890625 10.949219 C 14.472656 10.558594 15.089844 10.230469 15.734375 9.960938 C 16.382812 9.691406 17.050781 9.492188 17.734375 9.351562 C 18.421875 9.214844 19.117188 9.148438 19.816406 9.144531 L 355.183594 9.144531 C 355.882812 9.148438 356.578125 9.214844 357.265625 9.351562 C 357.949219 9.492188 358.617188 9.691406 359.265625 9.960938 C 359.910156 10.230469 360.527344 10.558594 361.109375 10.949219 C 361.691406 11.335938 362.230469 11.78125 362.726562 12.273438 C 363.21875 12.769531 363.664062 13.308594 364.050781 13.890625 C 364.441406 14.472656 364.769531 15.089844 365.039062 15.734375 C 365.308594 16.382812 365.507812 17.050781 365.648438 17.734375 C 365.785156 18.421875 365.851562 19.117188 365.855469 19.816406 Z M 365.855469 355.183594 " fill-opacity="1" fill-rule="nonzero"/><path fill="#2b2b2b" d="M 339.9375 22.867188 L 35.0625 22.867188 C 34.261719 22.867188 33.46875 22.945312 32.683594 23.101562 C 31.898438 23.257812 31.136719 23.492188 30.394531 23.796875 C 29.65625 24.105469 28.953125 24.480469 28.289062 24.925781 C 27.625 25.371094 27.007812 25.875 26.441406 26.441406 C 25.875 27.007812 25.371094 27.625 24.925781 28.289062 C 24.480469 28.953125 24.105469 29.65625 23.796875 30.394531 C 23.492188 31.136719 23.257812 31.898438 23.101562 32.683594 C 22.945312 33.46875 22.867188 34.261719 22.867188 35.0625 L 22.867188 339.9375 C 22.867188 340.738281 22.945312 341.53125 23.101562 342.316406 C 23.257812 343.101562 23.492188 343.863281 23.796875 344.605469 C 24.105469 345.34375 24.480469 346.046875 24.925781 346.710938 C 25.371094 347.375 25.875 347.992188 26.441406 348.558594 C 27.007812 349.125 27.625 349.628906 28.289062 350.074219 C 28.953125 350.519531 29.65625 350.894531 30.394531 351.203125 C 31.136719 351.507812 31.898438 351.742188 32.683594 351.898438 C 33.46875 352.054688 34.261719 352.132812 35.0625 352.132812 L 339.9375 352.132812 C 340.738281 352.132812 341.53125 352.054688 342.316406 351.898438 C 343.101562 351.742188 343.863281 351.507812 344.605469 351.203125 C 345.34375 350.894531 346.046875 350.519531 346.710938 350.074219 C 347.375 349.628906 347.992188 349.125 348.558594 348.558594 C 349.125 347.992188 349.628906 347.375 350.074219 346.710938 C 350.519531 346.046875 350.894531 345.34375 351.203125 344.605469 C 351.507812 343.863281 351.742188 343.101562 351.898438 342.316406 C 352.054688 341.53125 352.132812 340.738281 352.132812 339.9375 L 352.132812 35.0625 C 352.132812 34.261719 352.054688 33.46875 351.898438 32.683594 C 351.742188 31.898438 351.507812 31.136719 351.203125 30.394531 C 350.894531 29.65625 350.519531 28.953125 350.074219 28.289062 C 349.628906 27.625 349.125 27.007812 348.558594 26.441406 C 347.992188 25.875 347.375 25.371094 346.710938 24.925781 C 346.046875 24.480469 345.34375 24.105469 344.605469 23.796875 C 343.863281 23.492188 343.101562 23.257812 342.316406 23.101562 C 341.53125 22.945312 340.738281 22.867188 339.9375 22.867188 Z M 342.988281 339.9375 C 342.988281 340.34375 342.910156 340.730469 342.753906 341.105469 C 342.601562 341.480469 342.378906 341.808594 342.09375 342.09375 C 341.808594 342.378906 341.480469 342.601562 341.105469 342.753906 C 340.730469 342.910156 340.34375 342.988281 339.9375 342.988281 L 35.0625 342.988281 C 34.65625 342.988281 34.269531 342.910156 33.894531 342.753906 C 33.519531 342.601562 33.191406 342.378906 32.90625 342.09375 C 32.621094 341.808594 32.398438 341.480469 32.246094 341.105469 C 32.089844 340.730469 32.011719 340.34375 32.011719 339.9375 L 32.011719 35.0625 C 32.011719 34.65625 32.089844 34.269531 32.246094 33.894531 C 32.398438 33.519531 32.621094 33.191406 32.90625 32.90625 C 33.191406 32.621094 33.519531 32.398438 33.894531 32.246094 C 34.269531 32.089844 34.65625 32.011719 35.0625 32.011719 L 339.9375 32.011719 C 340.34375 32.011719 340.730469 32.089844 341.105469 32.246094 C 341.480469 32.398438 341.808594 32.621094 342.09375 32.90625 C 342.378906 33.191406 342.601562 33.519531 342.753906 33.894531 C 342.910156 34.269531 342.988281 34.65625 342.988281 35.0625 Z M 342.988281 339.9375 " fill-opacity="1" fill-rule="nonzero"/><path fill="#2b2b2b" d="M 52.519531 79.316406 C 52.519531 79.015625 52.492188 78.71875 52.433594 78.421875 C 52.375 78.128906 52.285156 77.84375 52.171875 77.566406 C 52.058594 77.289062 51.914062 77.023438 51.75 76.773438 C 51.582031 76.523438 51.394531 76.292969 51.179688 76.082031 C 50.96875 75.867188 50.738281 75.679688 50.488281 75.511719 C 50.238281 75.34375 49.972656 75.203125 49.695312 75.089844 C 49.417969 74.976562 49.132812 74.886719 48.839844 74.828125 C 48.542969 74.769531 48.246094 74.742188 47.945312 74.742188 C 47.644531 74.742188 47.347656 74.769531 47.054688 74.828125 C 46.761719 74.886719 46.472656 74.976562 46.195312 75.089844 C 45.917969 75.203125 45.65625 75.34375 45.40625 75.511719 C 45.15625 75.679688 44.925781 75.867188 44.714844 76.082031 C 44.5 76.292969 44.3125 76.523438 44.144531 76.773438 C 43.976562 77.023438 43.835938 77.289062 43.722656 77.566406 C 43.605469 77.84375 43.519531 78.128906 43.460938 78.421875 C 43.402344 78.71875 43.375 79.015625 43.375 79.316406 L 43.375 130.164062 C 43.375 130.464844 43.402344 130.761719 43.460938 131.054688 C 43.519531 131.351562 43.605469 131.636719 43.722656 131.914062 C 43.835938 132.191406 43.976562 132.453125 44.144531 132.703125 C 44.3125 132.953125 44.5 133.183594 44.714844 133.398438 C 44.925781 133.609375 45.15625 133.800781 45.40625 133.964844 C 45.65625 134.132812 45.917969 134.273438 46.195312 134.390625 C 46.472656 134.503906 46.761719 134.589844 47.054688 134.648438 C 47.347656 134.707031 47.644531 134.738281 47.945312 134.738281 C 48.246094 134.738281 48.542969 134.707031 48.839844 134.648438 C 49.132812 134.589844 49.417969 134.503906 49.695312 134.390625 C 49.972656 134.273438 50.238281 134.132812 50.488281 133.964844 C 50.738281 133.800781 50.96875 133.609375 51.179688 133.398438 C 51.394531 133.183594 51.582031 132.953125 51.75 132.703125 C 51.914062 132.453125 52.058594 132.191406 52.171875 131.914062 C 52.285156 131.636719 52.375 131.351562 52.433594 131.054688 C 52.492188 130.761719 52.519531 130.464844 52.519531 130.164062 Z M 52.519531 79.316406 " fill-opacity="1" fill-rule="nonzero"/><path fill="#2b2b2b" d="M 47.945312 65.320312 C 48.246094 65.320312 48.542969 65.289062 48.839844 65.230469 C 49.132812 65.171875 49.417969 65.085938 49.695312 64.972656 C 49.972656 64.855469 50.238281 64.714844 50.488281 64.550781 C 50.738281 64.382812 50.96875 64.191406 51.179688 63.980469 C 51.394531 63.769531 51.582031 63.539062 51.75 63.289062 C 51.914062 63.039062 52.058594 62.773438 52.171875 62.496094 C 52.285156 62.21875 52.375 61.933594 52.433594 61.640625 C 52.492188 61.34375 52.519531 61.046875 52.519531 60.746094 L 52.519531 45.847656 C 52.519531 45.546875 52.492188 45.25 52.433594 44.957031 C 52.375 44.664062 52.285156 44.375 52.171875 44.097656 C 52.058594 43.820312 51.914062 43.558594 51.75 43.308594 C 51.582031 43.058594 51.394531 42.828125 51.179688 42.617188 C 50.96875 42.402344 50.738281 42.214844 50.488281 42.046875 C 50.238281 41.878906 49.972656 41.738281 49.695312 41.625 C 49.417969 41.507812 49.132812 41.421875 48.839844 41.363281 C 48.542969 41.304688 48.246094 41.277344 47.945312 41.277344 C 47.644531 41.277344 47.347656 41.304688 47.054688 41.363281 C 46.761719 41.421875 46.472656 41.507812 46.195312 41.625 C 45.917969 41.738281 45.65625 41.878906 45.40625 42.046875 C 45.15625 42.214844 44.925781 42.402344 44.714844 42.617188 C 44.5 42.828125 44.3125 43.058594 44.144531 43.308594 C 43.976562 43.558594 43.835938 43.820312 43.722656 44.097656 C 43.605469 44.375 43.519531 44.664062 43.460938 44.957031 C 43.402344 45.25 43.375 45.546875 43.375 45.847656 L 43.375 60.746094 C 43.375 61.046875 43.402344 61.34375 43.460938 61.640625 C 43.519531 61.933594 43.605469 62.21875 43.722656 62.496094 C 43.835938 62.773438 43.976562 63.039062 44.144531 63.289062 C 44.3125 63.539062 44.5 63.769531 44.714844 63.980469 C 44.925781 64.191406 45.15625 64.382812 45.40625 64.550781 C 45.65625 64.714844 45.917969 64.855469 46.195312 64.972656 C 46.472656 65.085938 46.761719 65.171875 47.054688 65.230469 C 47.347656 65.289062 47.644531 65.320312 47.945312 65.320312 Z M 47.945312 65.320312 " fill-opacity="1" fill-rule="nonzero"/></svg>